<?xml version="1.0" standalone="no"?>
<!DOCTYPE svg PUBLIC "-//W3C//DTD SVG 20010904//EN"
 "http://www.w3.org/TR/2001/REC-SVG-20010904/DTD/svg10.dtd">
<svg version="1.0" xmlns="http://www.w3.org/2000/svg"
 width="1280.000000pt" height="998.000000pt" viewBox="0 0 1280.000000 998.000000"
 preserveAspectRatio="xMidYMid meet">
<g transform="translate(0.000000,998.000000) scale(0.100000,-0.100000)"
fill="#000000" stroke="none">
<path d="M6369 9975 c-3 -2 -68 -9 -145 -15 -1015 -76 -1814 -378 -2501 -944
-133 -110 -420 -396 -532 -531 -382 -459 -709 -1031 -969 -1690 -13 -32 -17
-103 -21 -374 l-6 -333 -120 -43 c-168 -60 -231 -87 -385 -166 -792 -403
-1381 -1143 -1589 -1998 -75 -306 -115 -698 -92 -906 46 -414 76 -566 167
-835 303 -896 1029 -1617 1933 -1919 291 -97 465 -123 565 -83 89 35 167 113
204 204 16 40 17 239 22 3168 l5 3125 43 100 c550 1265 1281 2007 2312 2343
456 150 1000 220 1400 182 1201 -113 2051 -591 2659 -1495 194 -288 339 -562
514 -970 l60 -140 6 -3135 c6 -2909 8 -3138 24 -3178 35 -91 114 -169 203
-205 100 -39 275 -13 565 84 1115 373 1931 1366 2073 2524 43 353 44 403 12
690 -30 267 -73 468 -147 687 -225 667 -683 1247 -1281 1624 -193 121 -474
253 -690 323 l-66 22 -4 352 -3 352 -64 155 c-530 1295 -1188 2080 -2140 2555
-481 241 -1053 394 -1656 445 -71 6 -160 15 -197 20 -71 11 -152 13 -159 5z"/>
<path d="M6245 6465 c-50 -18 -110 -81 -124 -131 -6 -22 -83 -500 -172 -1064
-88 -564 -164 -1029 -169 -1034 -14 -14 -15 -9 -75 329 -175 988 -172 975
-199 1015 -66 100 -205 120 -295 44 -23 -20 -48 -48 -56 -64 -8 -15 -55 -270
-105 -566 -169 -1005 -191 -1129 -199 -1137 -4 -4 -32 7 -61 25 -45 28 -62 33
-115 33 -35 0 -66 3 -69 6 -3 3 -17 178 -31 390 -14 211 -34 519 -45 684 -11
165 -31 475 -45 689 -28 429 -31 444 -97 502 -97 85 -247 56 -308 -59 -14 -26
-29 -47 -34 -47 -5 0 -26 16 -47 35 -145 130 -362 119 -492 -25 -25 -28 -55
-76 -67 -106 l-20 -55 2 -2837 3 -2837 24 -45 c56 -106 131 -164 253 -196 64
-17 70 -17 125 0 169 53 260 155 280 316 l8 65 53 7 c103 15 122 33 252 241
52 83 100 151 105 151 6 1 15 -38 21 -85 7 -47 17 -97 24 -110 65 -126 227
-153 324 -55 35 35 61 88 170 344 75 176 133 301 140 299 8 -2 13 -81 16 -253
6 -277 8 -286 76 -342 78 -65 189 -62 263 6 31 29 78 113 221 395 100 196 186
357 190 357 13 0 16 -23 60 -460 72 -701 68 -670 92 -719 74 -149 295 -145
361 6 9 21 75 251 147 511 71 260 132 478 135 483 4 5 10 9 14 9 5 0 39 -78
76 -172 85 -217 106 -259 146 -293 43 -36 72 -46 136 -46 69 -1 133 35 167 94
13 23 41 98 62 167 38 126 59 168 68 139 2 -8 23 -122 45 -253 44 -254 54
-285 115 -331 17 -13 52 -29 78 -36 95 -26 211 42 237 138 6 21 28 183 50 361
l40 322 127 161 c69 88 131 158 137 156 5 -1 56 -148 112 -325 71 -221 111
-333 129 -357 28 -37 92 -75 124 -75 11 0 24 -6 30 -13 7 -8 12 -111 14 -282
3 -307 6 -320 89 -410 54 -59 106 -89 191 -111 l68 -18 85 27 c104 34 179 97
222 185 l28 57 0 2840 0 2840 -33 67 c-38 77 -92 130 -171 166 -80 37 -192 37
-273 0 -75 -35 -141 -98 -175 -167 l-28 -56 -5 -945 c-3 -520 -7 -947 -8 -950
-11 -21 -32 92 -98 527 -41 274 -80 515 -85 536 -11 43 -59 101 -99 122 -96
50 -226 9 -275 -85 -8 -15 -75 -268 -150 -561 -75 -294 -138 -540 -141 -547
-13 -42 -35 26 -101 314 -41 175 -84 339 -96 363 -12 25 -39 59 -60 75 -31 25
-49 31 -102 34 -80 5 -140 -21 -180 -78 -16 -23 -66 -156 -125 -337 -62 -187
-103 -298 -111 -298 -9 0 -23 57 -45 184 -28 156 -37 191 -61 225 -55 80 -172
110 -258 66 -21 -11 -42 -17 -46 -12 -4 4 -12 88 -18 187 -16 255 -46 751 -71
1165 -12 195 -26 372 -31 393 -20 76 -111 147 -189 146 -19 0 -53 -6 -75 -14z"/>
</g>
</svg>
